<svg xmlns="http://www.w3.org/2000/svg" viewBox="0 0 732 194" font-family="Google Sans, Segoe UI, Arial, sans-serif">
  <rect width="732" height="194" rx="12" fill="#f8f9fa"/>
  <text x="366" y="26" text-anchor="middle" font-size="15" font-weight="700" fill="#202124">Pillar 6 — Comments and Docstrings</text>
  <rect x="15" y="40" width="119" height="30" rx="6" fill="#1a73e8"/>
  <text x="74" y="60" text-anchor="middle" font-size="12" font-weight="700" fill="white">Type</text>
  <rect x="139" y="40" width="329" height="30" rx="6" fill="#1a73e8"/>
  <text x="304" y="60" text-anchor="middle" font-size="12" font-weight="700" fill="white">Where</text>
  <rect x="473" y="40" width="243" height="30" rx="6" fill="#1a73e8"/>
  <text x="595" y="60" text-anchor="middle" font-size="12" font-weight="700" fill="white">Purpose</text>
  <rect x="15" y="76" width="119" height="28" rx="4" fill="#e8f0fe"/>
  <text x="25" y="94" font-size="12" font-weight="700" fill="#1a73e8">Block comment</text>
  <rect x="139" y="76" width="329" height="28" rx="4" fill="#e8f0fe"/>
  <text x="149" y="94" font-size="12" fill="#1a73e8">Above code, full line(s) starting with #</text>
  <rect x="473" y="76" width="243" height="28" rx="4" fill="#e8f0fe"/>
  <text x="483" y="94" font-size="12" fill="#1a73e8">Explain WHY a block exists</text>
  <rect x="15" y="108" width="119" height="28" rx="4" fill="white"/>
  <text x="25" y="126" font-size="12" font-weight="700" fill="#3c4043">Inline comment</text>
  <rect x="139" y="108" width="329" height="28" rx="4" fill="white"/>
  <text x="149" y="126" font-size="12" fill="#3c4043">After code, 2+ spaces from it, then #</text>
  <rect x="473" y="108" width="243" height="28" rx="4" fill="white"/>
  <text x="483" y="126" font-size="12" fill="#3c4043">Clarify a tricky line</text>
  <rect x="15" y="140" width="119" height="28" rx="4" fill="#e8f0fe"/>
  <text x="25" y="158" font-size="12" font-weight="700" fill="#1a73e8">Docstring</text>
  <rect x="139" y="140" width="329" height="28" rx="4" fill="#e8f0fe"/>
  <text x="149" y="158" font-size="12" fill="#1a73e8">First lines of function/class/module, triple-quoted</text>
  <rect x="473" y="140" width="243" height="28" rx="4" fill="#e8f0fe"/>
  <text x="483" y="158" font-size="12" fill="#1a73e8">API contract — args, returns, raises</text>
  <text x="366" y="188" text-anchor="middle" font-size="10" fill="#9aa0a6">HitaVir Tech</text>
</svg>
