<svg xmlns="http://www.w3.org/2000/svg" viewBox="0 0 681 386" font-family="Google Sans, Segoe UI, Arial, sans-serif">
  <rect width="681" height="386" rx="12" fill="#f8f9fa"/>
  <text x="340" y="26" text-anchor="middle" font-size="15" font-weight="700" fill="#202124">What changed?</text>
  <rect x="15" y="40" width="286" height="30" rx="6" fill="#1a73e8"/>
  <text x="158" y="60" text-anchor="middle" font-size="12" font-weight="700" fill="white">Issue in BEFORE</text>
  <rect x="306" y="40" width="360" height="30" rx="6" fill="#1a73e8"/>
  <text x="486" y="60" text-anchor="middle" font-size="12" font-weight="700" fill="white">Fix in AFTER</text>
  <rect x="15" y="76" width="286" height="28" rx="4" fill="#e8f0fe"/>
  <text x="25" y="94" font-size="12" font-weight="700" fill="#1a73e8">Imports on one line, mixed groups</text>
  <rect x="306" y="76" width="360" height="28" rx="4" fill="#e8f0fe"/>
  <text x="316" y="94" font-size="12" fill="#1a73e8">One per line, grouped, alphabetized</text>
  <rect x="15" y="108" width="286" height="28" rx="4" fill="white"/>
  <text x="25" y="126" font-size="12" font-weight="700" font-family="monospace" fill="#3c4043">TransformData (PascalCase)</text>
  <rect x="306" y="108" width="360" height="28" rx="4" fill="white"/>
  <text x="316" y="126" font-size="12" font-family="monospace" fill="#3c4043">transform_data (snake_case)</text>
  <rect x="15" y="140" width="286" height="28" rx="4" fill="#e8f0fe"/>
  <text x="25" y="158" font-size="12" font-weight="700" font-family="monospace" fill="#1a73e8">Threshold=100 (mixed case + spaces)</text>
  <rect x="306" y="140" width="360" height="28" rx="4" fill="#e8f0fe"/>
  <text x="316" y="158" font-size="12" font-family="monospace" fill="#1a73e8">threshold=100 (snake_case, no space around =)</text>
  <rect x="15" y="172" width="286" height="28" rx="4" fill="white"/>
  <text x="25" y="190" font-size="12" font-weight="700" fill="#3c4043">2-space indent</text>
  <rect x="306" y="172" width="360" height="28" rx="4" fill="white"/>
  <text x="316" y="190" font-size="12" fill="#3c4043">4-space indent</text>
  <rect x="15" y="204" width="286" height="28" rx="4" fill="#e8f0fe"/>
  <text x="25" y="222" font-size="12" font-weight="700" font-family="monospace" fill="#1a73e8">r is too cryptic</text>
  <rect x="306" y="204" width="360" height="28" rx="4" fill="#e8f0fe"/>
  <text x="316" y="222" font-size="12" font-family="monospace" fill="#1a73e8">record (descriptive)</text>
  <rect x="15" y="236" width="286" height="28" rx="4" fill="white"/>
  <text x="25" y="254" font-size="12" font-weight="700" font-family="monospace" fill="#3c4043">==None</text>
  <rect x="306" y="236" width="360" height="28" rx="4" fill="white"/>
  <text x="316" y="254" font-size="12" font-family="monospace" fill="#3c4043">is None</text>
  <rect x="15" y="268" width="286" height="28" rx="4" fill="#e8f0fe"/>
  <text x="25" y="286" font-size="12" font-weight="700" font-family="monospace" fill="#1a73e8">range(len(records))</text>
  <rect x="306" y="268" width="360" height="28" rx="4" fill="#e8f0fe"/>
  <text x="316" y="286" font-size="12" fill="#1a73e8">direct iteration over records</text>
  <rect x="15" y="300" width="286" height="28" rx="4" fill="white"/>
  <text x="25" y="318" font-size="12" font-weight="700" fill="#3c4043">Two statements on one line (;)</text>
  <rect x="306" y="300" width="360" height="28" rx="4" fill="white"/>
  <text x="316" y="318" font-size="12" fill="#3c4043">One per line</text>
  <rect x="15" y="332" width="286" height="28" rx="4" fill="#e8f0fe"/>
  <text x="25" y="350" font-size="12" font-weight="700" fill="#1a73e8">No docstring</text>
  <rect x="306" y="332" width="360" height="28" rx="4" fill="#e8f0fe"/>
  <text x="316" y="350" font-size="12" fill="#1a73e8">Docstring describing intent</text>
  <text x="340" y="380" text-anchor="middle" font-size="10" fill="#9aa0a6">HitaVir Tech</text>
</svg>
