<svg xmlns="http://www.w3.org/2000/svg" viewBox="0 0 635 322" font-family="Google Sans, Segoe UI, Arial, sans-serif">
  <rect width="635" height="322" rx="12" fill="#f8f9fa"/>
  <text x="317" y="26" text-anchor="middle" font-size="15" font-weight="700" fill="#202124">Core Comparison</text>
  <rect x="15" y="40" width="93" height="30" rx="6" fill="#1a73e8"/>
  <text x="61" y="60" text-anchor="middle" font-size="12" font-weight="700" fill="white">Feature</text>
  <rect x="113" y="40" width="145" height="30" rx="6" fill="#1a73e8"/>
  <text x="186" y="60" text-anchor="middle" font-size="12" font-weight="700" fill="white">List</text>
  <rect x="264" y="40" width="107" height="30" rx="6" fill="#1a73e8"/>
  <text x="318" y="60" text-anchor="middle" font-size="12" font-weight="700" fill="white">Tuple</text>
  <rect x="376" y="40" width="104" height="30" rx="6" fill="#1a73e8"/>
  <text x="428" y="60" text-anchor="middle" font-size="12" font-weight="700" fill="white">Set</text>
  <rect x="485" y="40" width="134" height="30" rx="6" fill="#1a73e8"/>
  <text x="553" y="60" text-anchor="middle" font-size="12" font-weight="700" fill="white">Dictionary</text>
  <rect x="15" y="76" width="93" height="28" rx="4" fill="#e8f0fe"/>
  <text x="25" y="94" font-size="12" font-weight="700" fill="#1a73e8">Syntax</text>
  <rect x="113" y="76" width="145" height="28" rx="4" fill="#e8f0fe"/>
  <text x="123" y="94" font-size="12" font-family="monospace" fill="#1a73e8">[1, 2, 3]</text>
  <rect x="264" y="76" width="107" height="28" rx="4" fill="#e8f0fe"/>
  <text x="274" y="94" font-size="12" font-family="monospace" fill="#1a73e8">(1, 2, 3)</text>
  <rect x="376" y="76" width="104" height="28" rx="4" fill="#e8f0fe"/>
  <text x="386" y="94" font-size="12" font-family="monospace" fill="#1a73e8">{1, 2, 3}</text>
  <rect x="485" y="76" width="134" height="28" rx="4" fill="#e8f0fe"/>
  <text x="495" y="94" font-size="12" font-family="monospace" fill="#1a73e8">{"a": 1}</text>
  <rect x="15" y="108" width="93" height="28" rx="4" fill="white"/>
  <text x="25" y="126" font-size="12" font-weight="700" fill="#3c4043">Mutable?</text>
  <rect x="113" y="108" width="145" height="28" rx="4" fill="white"/>
  <text x="123" y="126" font-size="12" fill="#3c4043">Yes</text>
  <rect x="264" y="108" width="107" height="28" rx="4" fill="white"/>
  <text x="274" y="126" font-size="12" fill="#3c4043">No</text>
  <rect x="376" y="108" width="104" height="28" rx="4" fill="white"/>
  <text x="386" y="126" font-size="12" fill="#3c4043">Yes</text>
  <rect x="485" y="108" width="134" height="28" rx="4" fill="white"/>
  <text x="495" y="126" font-size="12" fill="#3c4043">Yes</text>
  <rect x="15" y="140" width="93" height="28" rx="4" fill="#e8f0fe"/>
  <text x="25" y="158" font-size="12" font-weight="700" fill="#1a73e8">Ordered?</text>
  <rect x="113" y="140" width="145" height="28" rx="4" fill="#e8f0fe"/>
  <text x="123" y="158" font-size="12" fill="#1a73e8">Yes</text>
  <rect x="264" y="140" width="107" height="28" rx="4" fill="#e8f0fe"/>
  <text x="274" y="158" font-size="12" fill="#1a73e8">Yes</text>
  <rect x="376" y="140" width="104" height="28" rx="4" fill="#e8f0fe"/>
  <text x="386" y="158" font-size="12" fill="#1a73e8">No</text>
  <rect x="485" y="140" width="134" height="28" rx="4" fill="#e8f0fe"/>
  <text x="495" y="158" font-size="12" fill="#1a73e8">Yes (3.7+)</text>
  <rect x="15" y="172" width="93" height="28" rx="4" fill="white"/>
  <text x="25" y="190" font-size="12" font-weight="700" fill="#3c4043">Duplicates?</text>
  <rect x="113" y="172" width="145" height="28" rx="4" fill="white"/>
  <text x="123" y="190" font-size="12" fill="#3c4043">Allowed</text>
  <rect x="264" y="172" width="107" height="28" rx="4" fill="white"/>
  <text x="274" y="190" font-size="12" fill="#3c4043">Allowed</text>
  <rect x="376" y="172" width="104" height="28" rx="4" fill="white"/>
  <text x="386" y="190" font-size="12" fill="#3c4043">Not allowed</text>
  <rect x="485" y="172" width="134" height="28" rx="4" fill="white"/>
  <text x="495" y="190" font-size="12" fill="#3c4043">Keys unique</text>
  <rect x="15" y="204" width="93" height="28" rx="4" fill="#e8f0fe"/>
  <text x="25" y="222" font-size="12" font-weight="700" fill="#1a73e8">Indexing?</text>
  <rect x="113" y="204" width="145" height="28" rx="4" fill="#e8f0fe"/>
  <text x="123" y="222" font-size="12" fill="#1a73e8">Yes [0]</text>
  <rect x="264" y="204" width="107" height="28" rx="4" fill="#e8f0fe"/>
  <text x="274" y="222" font-size="12" fill="#1a73e8">Yes [0]</text>
  <rect x="376" y="204" width="104" height="28" rx="4" fill="#e8f0fe"/>
  <text x="386" y="222" font-size="12" fill="#1a73e8">No</text>
  <rect x="485" y="204" width="134" height="28" rx="4" fill="#e8f0fe"/>
  <text x="495" y="222" font-size="12" fill="#1a73e8">By key ["a"]</text>
  <rect x="15" y="236" width="93" height="28" rx="4" fill="white"/>
  <text x="25" y="254" font-size="12" font-weight="700" fill="#3c4043">Slicing?</text>
  <rect x="113" y="236" width="145" height="28" rx="4" fill="white"/>
  <text x="123" y="254" font-size="12" fill="#3c4043">Yes [1:3]</text>
  <rect x="264" y="236" width="107" height="28" rx="4" fill="white"/>
  <text x="274" y="254" font-size="12" fill="#3c4043">Yes [1:3]</text>
  <rect x="376" y="236" width="104" height="28" rx="4" fill="white"/>
  <text x="386" y="254" font-size="12" fill="#3c4043">No</text>
  <rect x="485" y="236" width="134" height="28" rx="4" fill="white"/>
  <text x="495" y="254" font-size="12" fill="#3c4043">No</text>
  <rect x="15" y="268" width="93" height="28" rx="4" fill="#e8f0fe"/>
  <text x="25" y="286" font-size="12" font-weight="700" fill="#1a73e8">Use case</text>
  <rect x="113" y="268" width="145" height="28" rx="4" fill="#e8f0fe"/>
  <text x="123" y="286" font-size="12" fill="#1a73e8">Collections of items</text>
  <rect x="264" y="268" width="107" height="28" rx="4" fill="#e8f0fe"/>
  <text x="274" y="286" font-size="12" fill="#1a73e8">Fixed records</text>
  <rect x="376" y="268" width="104" height="28" rx="4" fill="#e8f0fe"/>
  <text x="386" y="286" font-size="12" fill="#1a73e8">Unique values</text>
  <rect x="485" y="268" width="134" height="28" rx="4" fill="#e8f0fe"/>
  <text x="495" y="286" font-size="12" fill="#1a73e8">Key-value mapping</text>
  <text x="317" y="316" text-anchor="middle" font-size="10" fill="#9aa0a6">HitaVir Tech</text>
</svg>
